<svg xmlns="http://www.w3.org/2000/svg" xmlns:xlink="http://www.w3.org/1999/xlink" width="650" height="195.39"><rect width="650" height="195.39" rx="0" ry="0" class="a"/><svg height="195.39" viewBox="0 0 65 19.539" width="650" xmlns="http://www.w3.org/2000/svg" xmlns:xlink="http://www.w3.org/1999/xlink"><style>@keyframes k{0%{transform:translateX(0)}70.9%{transform:translateX(-65px)}71.1%{transform:translateX(-195px)}81.2%{transform:translateX(-260px)}81.3%{transform:translateX(-390px)}81.6%{transform:translateX(-455px)}81.7%{transform:translateX(-520px)}88.7%{transform:translateX(-585px)}88.8%{transform:translateX(-650px)}88.9%{transform:translateX(-715px)}99.1%{transform:translateX(-780px)}99.2%{transform:translateX(-910px)}99.5%{transform:translateX(-975px)}}.a{fill:#282d35}.c{fill:#585858;white-space:pre}.d{fill:#ff0}.d,.f{white-space:pre}</style><g font-family="Monaco,Consolas,Menlo,'Bitstream Vera Sans Mono','Powerline Symbols',monospace" font-size="1.67"><defs><symbol id="1"><text y="1.67" class="c">┌</text></symbol><symbol id="2"><text y="1.67" class="c">┌────────────────────────────────────────────────────────────────</text></symbol><symbol id="3"><text y="1.67" class="c">────────────┐\033[0m</text></symbol><symbol id="4"><text y="1.67" class="c">│\033[0m</text><text x="10.02" y="1.67" class="c">Simple</text><text x="17.034" y="1.67" class="c">content</text><text x="25.05" y="1.67" class="c">inside</text><text x="32.064" y="1.67" class="c">a</text><text x="34.068" y="1.67" class="c">box</text></symbol><symbol id="5"><text x="21.042" y="1.67" class="c">│\033[0m</text></symbol><symbol id="6"><text y="1.67" class="c">└</text></symbol><symbol id="7"><text y="1.67" class="c">└────────────────────────────────────────────────────────────────</text></symbol><symbol id="8"><text y="1.67" class="c">────────────┘\033[0m</text></symbol><symbol id="9"><text y="1.67" class="c">┌───────────────────────────</text><text x="29.058" y="1.67" class="d">\033[1mDeployment</text><text x="47.094" y="1.67" class="d">Summary\033[0m</text><text x="62.124" y="1.67" class="c">───</text></symbol><symbol id="10"><text y="1.67" class="c">────────────────────────┐\033[0m</text></symbol><symbol id="11"><text y="1.67" class="c">│\033[0m</text><path fill="#0f0" d="M10.02 0h3v2.171h-3z"/><text x="10.02" y="1.67" class="f">3</text><path fill="#ff8700" d="M15.03 0h3v2.171h-3z"/><text x="15.03" y="1.67" class="f">1</text><path fill="#585858" d="M20.04 0h3v2.171h-3z"/><text x="20.04" y="1.67" style="white-space:pre" fill="#fff">0</text></symbol><symbol id="a"><path fill="transparent" d="M0 0h65v10H0z"/></symbol></defs><path class="a" d="M0 0h65v19.539H0z"/><g style="animation-duration:.085577s;animation-iteration-count:infinite;animation-name:k;animation-timing-function:steps(1,end)"><svg width="1040"><svg><use xlink:href="#a"/></svg><svg x="65"><use xlink:href="#a"/><use xlink:href="#1"/></svg><svg x="130"><use xlink:href="#a"/><use xlink:href="#2"/><text y="3.841" class="c">────────────</text></svg><svg x="195"><use xlink:href="#a"/><use xlink:href="#2"/><use xlink:href="#3" y="2.171"/></svg><svg x="260"><use xlink:href="#a"/><use xlink:href="#2"/><use xlink:href="#3" y="2.171"/><use xlink:href="#4" y="4.342"/></svg><svg x="325"><use xlink:href="#a"/><use xlink:href="#2"/><use xlink:href="#3" y="2.171"/><use xlink:href="#4" y="4.342"/><use xlink:href="#5" y="6.513"/></svg><svg x="390"><use xlink:href="#a"/><use xlink:href="#2"/><use xlink:href="#3" y="2.171"/><use xlink:href="#4" y="4.342"/><use xlink:href="#5" y="6.513"/><use xlink:href="#6" y="8.684"/></svg><svg x="455"><use xlink:href="#a"/><use xlink:href="#2"/><use xlink:href="#3" y="2.171"/><use xlink:href="#4" y="4.342"/><use xlink:href="#5" y="6.513"/><use xlink:href="#7" y="8.684"/><use xlink:href="#8" y="10.855"/></svg><svg x="520"><use xlink:href="#a"/><use xlink:href="#2"/><use xlink:href="#3" y="2.171"/><use xlink:href="#4" y="4.342"/><use xlink:href="#5" y="6.513"/><use xlink:href="#7" y="8.684"/><use xlink:href="#8" y="10.855"/></svg><svg x="585"><use xlink:href="#a"/><use xlink:href="#2"/><use xlink:href="#3" y="2.171"/><use xlink:href="#4" y="4.342"/><use xlink:href="#5" y="6.513"/><use xlink:href="#7" y="8.684"/><use xlink:href="#8" y="10.855"/><use xlink:href="#1" y="15.197"/></svg><svg x="650"><use xlink:href="#a"/><use xlink:href="#2"/><use xlink:href="#3" y="2.171"/><use xlink:href="#4" y="4.342"/><use xlink:href="#5" y="6.513"/><use xlink:href="#7" y="8.684"/><use xlink:href="#8" y="10.855"/><text y="16.867" class="c">┌───────────────────────────</text><text x="29.058" y="16.867" class="d">\033[1mDeployment</text><text x="47.094" y="16.867" class="d">Summary\033[0m</text></svg><svg x="715"><use xlink:href="#a"/><use xlink:href="#2"/><use xlink:href="#3" y="2.171"/><use xlink:href="#4" y="4.342"/><use xlink:href="#5" y="6.513"/><use xlink:href="#7" y="8.684"/><use xlink:href="#8" y="10.855"/><use xlink:href="#9" y="15.197"/><use xlink:href="#10" y="17.368"/></svg><svg x="780"><use xlink:href="#a"/><use xlink:href="#2"/><use xlink:href="#3" y="2.171"/><use xlink:href="#4" y="4.342"/><use xlink:href="#5" y="6.513"/><use xlink:href="#7" y="8.684"/><use xlink:href="#8" y="10.855"/><use xlink:href="#9" y="15.197"/><use xlink:href="#10" y="17.368"/><use xlink:href="#11" y="19.539"/></svg><svg x="845"><use xlink:href="#a"/><use xlink:href="#4"/><use xlink:href="#5" y="2.171"/><use xlink:href="#7" y="4.342"/><use xlink:href="#8" y="6.513"/><use xlink:href="#9" y="10.855"/><use xlink:href="#10" y="13.026"/><use xlink:href="#11" y="15.197"/><use xlink:href="#5" y="17.368"/></svg><svg x="910"><use xlink:href="#a"/><use xlink:href="#4"/><use xlink:href="#5" y="2.171"/><use xlink:href="#7" y="4.342"/><use xlink:href="#8" y="6.513"/><use xlink:href="#9" y="10.855"/><use xlink:href="#10" y="13.026"/><use xlink:href="#11" y="15.197"/><use xlink:href="#5" y="17.368"/><use xlink:href="#6" y="19.539"/></svg><svg x="975"><use xlink:href="#a"/><use xlink:href="#7"/><use xlink:href="#8" y="2.171"/><use xlink:href="#9" y="6.513"/><use xlink:href="#10" y="8.684"/><use xlink:href="#11" y="10.855"/><use xlink:href="#5" y="13.026"/><use xlink:href="#7" y="15.197"/><use xlink:href="#8" y="17.368"/></svg></svg></g></g></svg></svg>