<svg xmlns="http://www.w3.org/2000/svg" xmlns:xlink="http://www.w3.org/1999/xlink" width="650" height="108.55"><rect width="650" height="108.55" rx="0" ry="0" class="a"/><svg height="108.55" viewBox="0 0 65 10.855" width="650" xmlns="http://www.w3.org/2000/svg" xmlns:xlink="http://www.w3.org/1999/xlink"><style>@keyframes l{0%{transform:translateX(0)}87.1%{transform:translateX(-65px)}93.4%{transform:translateX(-130px)}99.4%{transform:translateX(-195px)}}.a{fill:#282d35}.c{fill:#b9c0cb;white-space:pre}.d{fill:#0f0}.e,.f,.i{white-space:pre}.f,.i{fill:#ff8700}.i{fill:#fff}.j{fill:#585858}.n,.o,.p{fill:#0f0;white-space:pre}.o,.p{fill:#585858}.p{fill:#00afff}</style><g font-family="Monaco,Consolas,Menlo,'Bitstream Vera Sans Mono','Powerline Symbols',monospace" font-size="1.67"><defs><symbol id="1"><text y="1.67" class="c">Version:</text><path class="d" d="M9.018 0h6v2.171h-6z"/><text x="9.018" y="1.67" class="e">v1.0</text><text x="17.034" y="1.67" class="f">▐</text><path fill="#ff8700" d="M18.036 0h4v2.171h-4z"/><text x="18.036" y="1.67" class="e">beta</text><text x="22.044" y="1.67" class="f">▌</text></symbol><symbol id="2"><text y="1.67" class="c">Build:</text><path fill="red" d="M7.014 0h6v2.171h-6z"/><text x="7.014" y="1.67" class="i">FAIL</text><path class="d" d="M15.03 0h6v2.171h-6z"/><text x="15.03" y="1.67" class="e">PASS</text><path class="j" d="M23.046 0h6v2.171h-6z"/><text x="23.046" y="1.67" class="i">SKIP</text></symbol><symbol id="a"><path fill="transparent" d="M0 0h65v6H0z"/></symbol></defs><path class="a" d="M0 0h65v10.855H0z"/><g style="animation-duration:.067487s;animation-iteration-count:infinite;animation-name:l;animation-timing-function:steps(1,end)"><svg width="260"><svg><use xlink:href="#a"/></svg><svg x="65"><use xlink:href="#a"/><use xlink:href="#1"/></svg><svg x="130"><use xlink:href="#a"/><use xlink:href="#1"/><use xlink:href="#2" y="2.171"/></svg><svg x="195"><use xlink:href="#a"/><use xlink:href="#1"/><use xlink:href="#2" y="2.171"/><text y="6.012" class="c">Tags:</text><text x="6.012" y="6.012" class="n">▐</text><path class="d" d="M7.014 4.342h6v2.171h-6z"/><text x="7.014" y="6.012" class="e">stable</text><text x="13.026" y="6.012" class="n">▌</text><text x="16.032" y="6.012" class="o">▐</text><path class="j" d="M17.034 4.342h10v2.171h-10z"/><text x="17.034" y="6.012" class="i">deprecated</text><text x="27.054" y="6.012" class="o">▌</text><text x="30.06" y="6.012" class="p">▐</text><path fill="#00afff" d="M31.062 4.342h3v2.171h-3z"/><text x="31.062" y="6.012" class="i">new</text><text x="34.068" y="6.012" class="p">▌</text></svg></svg></g></g></svg></svg>