<svg xmlns="http://www.w3.org/2000/svg" xmlns:xlink="http://www.w3.org/1999/xlink" width="650" height="108.55"><rect width="650" height="108.55" rx="0" ry="0" class="a"/><svg height="108.55" viewBox="0 0 65 10.855" width="650" xmlns="http://www.w3.org/2000/svg" xmlns:xlink="http://www.w3.org/1999/xlink"><style>.a{fill:#282d35}.d{fill:#b9c0cb;white-space:pre}.e{fill:#0f0}.f,.g,.j{white-space:pre}.g,.j{fill:#ff8700}.j{fill:#fff}.k{fill:#585858}.l,.m,.n{fill:#0f0;white-space:pre}.m,.n{fill:#585858}.n{fill:#00afff}</style><g font-family="Monaco,Consolas,Menlo,'Bitstream Vera Sans Mono','Powerline Symbols',monospace" font-size="1.67"><defs><symbol id="a"><path fill="transparent" d="M0 0h65v6H0z"/></symbol></defs><path class="a" d="M0 0h65v10.855H0z"/><svg width="65"><svg><use xlink:href="#a"/><text y="1.67" class="d">Version:</text><path class="e" d="M9.018 0h6v2.171h-6z"/><text x="9.018" y="1.67" class="f">v1.0</text><text x="17.034" y="1.67" class="g">▐</text><path fill="#ff8700" d="M18.036 0h4v2.171h-4z"/><text x="18.036" y="1.67" class="f">beta</text><text x="22.044" y="1.67" class="g">▌</text><text y="3.841" class="d">Build:</text><path fill="red" d="M7.014 2.171h6v2.171h-6z"/><text x="7.014" y="3.841" class="j">FAIL</text><path class="e" d="M15.03 2.171h6v2.171h-6z"/><text x="15.03" y="3.841" class="f">PASS</text><path class="k" d="M23.046 2.171h6v2.171h-6z"/><text x="23.046" y="3.841" class="j">SKIP</text><text y="6.012" class="d">Tags:</text><text x="6.012" y="6.012" class="l">▐</text><path class="e" d="M7.014 4.342h6v2.171h-6z"/><text x="7.014" y="6.012" class="f">stable</text><text x="13.026" y="6.012" class="l">▌</text><text x="16.032" y="6.012" class="m">▐</text><path class="k" d="M17.034 4.342h10v2.171h-10z"/><text x="17.034" y="6.012" class="j">deprecated</text><text x="27.054" y="6.012" class="m">▌</text><text x="30.06" y="6.012" class="n">▐</text><path fill="#00afff" d="M31.062 4.342h3v2.171h-3z"/><text x="31.062" y="6.012" class="j">new</text><text x="34.068" y="6.012" class="n">▌</text></svg></svg></g></svg></svg>