<svg xmlns="http://www.w3.org/2000/svg" xmlns:xlink="http://www.w3.org/1999/xlink" width="650" height="151.97"><rect width="650" height="151.97" rx="0" ry="0" class="a"/><svg height="151.97" viewBox="0 0 65 15.197" width="650" xmlns="http://www.w3.org/2000/svg" xmlns:xlink="http://www.w3.org/1999/xlink"><style>@keyframes h{0%{transform:translateX(0)}99.1%{transform:translateX(-65px)}99.2%{transform:translateX(-130px)}99.3%{transform:translateX(-195px)}}.a{fill:#282d35}.d{fill:#b9c0cb;white-space:pre}</style><g font-family="Monaco,Consolas,Menlo,'Bitstream Vera Sans Mono','Powerline Symbols',monospace" font-size="1.67"><defs><symbol id="1"><text y="1.67" style="white-space:pre" fill="#0f0">✅</text><text x="2.004" y="1.67" class="d">Deployment</text><text x="13.026" y="1.67" class="d">complete</text></symbol><symbol id="2"><text y="1.67" style="white-space:pre" fill="red">❌</text><text x="2.004" y="1.67" class="d">Build</text><text x="8.016" y="1.67" class="d">failed:</text><text x="16.032" y="1.67" class="d">config</text><text x="23.046" y="1.67" class="d">not</text><text x="27.054" y="1.67" class="d">found</text></symbol><symbol id="3"><text y="1.67" style="white-space:pre" fill="#ff8700">⚠️</text><text x="3.006" y="1.67" class="d">API</text><text x="7.014" y="1.67" class="d">key</text><text x="11.022" y="1.67" class="d">expires</text><text x="19.038" y="1.67" class="d">in</text><text x="22.044" y="1.67" class="d">3</text><text x="24.048" y="1.67" class="d">days</text></symbol><symbol id="a"><path fill="transparent" d="M0 0h65v8H0z"/></symbol></defs><path class="a" d="M0 0h65v15.197H0z"/><g style="animation-duration:.075936s;animation-iteration-count:infinite;animation-name:h;animation-timing-function:steps(1,end)"><svg width="260"><svg><use xlink:href="#a"/></svg><svg x="65"><use xlink:href="#a"/><use xlink:href="#1"/><use xlink:href="#2" y="2.171"/></svg><svg x="130"><use xlink:href="#a"/><use xlink:href="#1"/><use xlink:href="#2" y="2.171"/><use xlink:href="#3" y="4.342"/></svg><svg x="195"><use xlink:href="#a"/><use xlink:href="#1"/><use xlink:href="#2" y="2.171"/><use xlink:href="#3" y="4.342"/><text y="8.183" style="white-space:pre" fill="#00afff">ℹ️</text><text x="3.006" y="8.183" class="d">Running</text><text x="11.022" y="8.183" class="d">in</text><text x="14.028" y="8.183" class="d">dry-run</text><text x="22.044" y="8.183" class="d">mode</text></svg></svg></g></g></svg></svg>