<svg xmlns="http://www.w3.org/2000/svg" xmlns:xlink="http://www.w3.org/1999/xlink" width="700" height="195.39"><rect width="700" height="195.39" rx="0" ry="0" class="a"/><svg height="195.39" viewBox="0 0 70 19.539" width="700" xmlns="http://www.w3.org/2000/svg" xmlns:xlink="http://www.w3.org/1999/xlink"><style>@keyframes k{0%{transform:translateX(0)}25.2%{transform:translateX(-70px)}27.7%{transform:translateX(-140px)}30.1%{transform:translateX(-210px)}32.4%{transform:translateX(-280px)}34.7%{transform:translateX(-350px)}37.3%{transform:translateX(-420px)}39.8%{transform:translateX(-490px)}42.3%{transform:translateX(-560px)}44.9%{transform:translateX(-630px)}47.4%{transform:translateX(-700px)}49.8%{transform:translateX(-770px)}52.3%{transform:translateX(-840px)}54.8%{transform:translateX(-910px)}57.5%{transform:translateX(-980px)}60.4%{transform:translateX(-1050px)}60.8%{transform:translateX(-1120px)}61.2%{transform:translateX(-1260px)}63.5%{transform:translateX(-1400px)}63.6%{transform:translateX(-1470px)}66%{transform:translateX(-1680px)}68.3%{transform:translateX(-1750px)}68.4%{transform:translateX(-1960px)}71%{transform:translateX(-2240px)}73.6%{transform:translateX(-2450px)}76.2%{transform:translateX(-2730px)}78.7%{transform:translateX(-3010px)}81.7%{transform:translateX(-3290px)}84.3%{transform:translateX(-3570px)}86.9%{transform:translateX(-3780px)}89.5%{transform:translateX(-4060px)}92.3%{transform:translateX(-4340px)}94.8%{transform:translateX(-4620px)}97.3%{transform:translateX(-4760px)}99.8%{transform:translateX(-5110px)}}.a{fill:#282d35}.c,.d{fill:#b9c0cb;white-space:pre}.d{fill:#585858}.e{fill:#0f0}.f{white-space:pre}.g{fill:#ff8700}.h{fill:red}.i{fill:#fff;white-space:pre}</style><g font-family="Monaco,Consolas,Menlo,'Bitstream Vera Sans Mono','Powerline Symbols',monospace" font-size="1.67"><defs><symbol id="1"><text y="1.67" class="c">len=7</text></symbol><symbol id="2"><text y="1.67" class="c">len=6</text></symbol><symbol id="3"><text y="1.67" class="c">len=4</text></symbol><symbol id="4"><text y="1.67" class="c">len=3</text></symbol><symbol id="5"><text y="1.67" class="c">len=5</text></symbol><symbol id="6"><text y="1.67" class="c">len=10</text></symbol><symbol id="7"><text y="1.67" class="c">dashes=─────────</text></symbol><symbol id="8"><text y="1.67" class="d">┌─────────┬─────────┬────────────┐</text></symbol><symbol id="9"><text y="1.67" class="d">│\033[0m</text></symbol><symbol id="10"><text y="1.67" class="d">│\033[0m</text><text x="9.018" y="1.67" class="d">\033[1mPackage\033[0m</text><text x="31.062" y="1.67" class="d">│\033[0mvis_len=7</text></symbol><symbol id="11"><text x="1.002" y="1.67" class="d">\033[1mVersion\033[0m</text><text x="23.046" y="1.67" class="d">│\033[0mvis_len=7</text></symbol><symbol id="12"><text x="1.002" y="1.67" class="d">\033[1mStatus\033[0m</text><text x="26.052" y="1.67" class="d">│\033[0m</text></symbol><symbol id="13"><text y="1.67" class="d">├─────────┼─────────┼────────────┤</text></symbol><symbol id="14"><text y="1.67" class="d">│\033[0mvis_len=6</text></symbol><symbol id="15"><text x="1.002" y="1.67" class="d">node</text></symbol><symbol id="16"><text x="1.002" y="1.67" class="d">node</text><text x="9.018" y="1.67" class="d">│\033[0mvis_len=4</text></symbol><symbol id="17"><text x="1.002" y="1.67" class="d">20.11.0</text><text x="9.018" y="1.67" class="d">│\033[0mvis_len=7</text></symbol><symbol id="18"><path class="e" d="M1.002 0h4v2.171h-4z"/><text x="1.002" y="1.67" class="f">OK</text></symbol><symbol id="19"><path class="e" d="M1.002 0h4v2.171h-4z"/><text x="1.002" y="1.67" class="f">OK</text><text x="12.024" y="1.67" class="d">│\033[0m</text></symbol><symbol id="20"><text y="1.67" class="d">│\033[0mvis_len=4</text></symbol><symbol id="21"><text x="1.002" y="1.67" class="d">bun</text></symbol><symbol id="22"><text x="1.002" y="1.67" class="d">bun</text><text x="9.018" y="1.67" class="d">│\033[0mvis_len=3</text></symbol><symbol id="23"><text x="1.002" y="1.67" class="d">1.1.3</text></symbol><symbol id="24"><text x="1.002" y="1.67" class="d">1.1.3</text><text x="9.018" y="1.67" class="d">│\033[0mvis_len=5</text></symbol><symbol id="25"><text x="1.002" y="1.67" class="d">python</text><text x="9.018" y="1.67" class="d">│\033[0mvis_len=6</text></symbol><symbol id="26"><text x="1.002" y="1.67" class="d">3.12.0</text></symbol><symbol id="27"><text x="1.002" y="1.67" class="d">3.12.0</text><text x="9.018" y="1.67" class="d">│\033[0mvis_len=6</text></symbol><symbol id="28"><path class="g" d="M1.002 0h10v2.171h-10z"/><text x="1.002" y="1.67" class="f">outdated</text><text x="12.024" y="1.67" class="d">│\033[0m</text></symbol><symbol id="29"><text y="1.67" class="d">│\033[0mvis_len=10</text></symbol><symbol id="30"><text x="1.002" y="1.67" class="d">ruby</text></symbol><symbol id="31"><text x="1.002" y="1.67" class="d">ruby</text><text x="9.018" y="1.67" class="d">│\033[0mvis_len=4</text></symbol><symbol id="32"><text x="1.002" y="1.67" class="d">2.7.0</text><text x="9.018" y="1.67" class="d">│\033[0mvis_len=5</text></symbol><symbol id="33"><path class="h" d="M1.002 0h5v2.171h-5z"/><text x="1.002" y="1.67" class="i">EOL</text></symbol><symbol id="34"><path class="h" d="M1.002 0h5v2.171h-5z"/><text x="1.002" y="1.67" class="i">EOL</text><text x="12.024" y="1.67" class="d">│\033[0m</text></symbol><symbol id="a"><path fill="transparent" d="M0 0h70v10H0z"/></symbol></defs><path class="a" d="M0 0h70v19.539H0z"/><g style="animation-duration:.340877s;animation-iteration-count:infinite;animation-name:k;animation-timing-function:steps(1,end)"><svg width="5180"><svg><use xlink:href="#a"/></svg><svg x="70"><use xlink:href="#a"/><use xlink:href="#1"/></svg><svg x="140"><use xlink:href="#a"/><use xlink:href="#1"/><use xlink:href="#1" y="2.171"/></svg><svg x="210"><use xlink:href="#a"/><use xlink:href="#1"/><use xlink:href="#1" y="2.171"/><use xlink:href="#2" y="4.342"/></svg><svg x="280"><use xlink:href="#a"/><use xlink:href="#1"/><use xlink:href="#1" y="2.171"/><use xlink:href="#2" y="4.342"/><use xlink:href="#3" y="6.513"/></svg><svg x="350"><use xlink:href="#a"/><use xlink:href="#1"/><use xlink:href="#1" y="2.171"/><use xlink:href="#2" y="4.342"/><use xlink:href="#3" y="6.513"/><use xlink:href="#1" y="8.684"/></svg><svg x="420"><use xlink:href="#a"/><use xlink:href="#1"/><use xlink:href="#1" y="2.171"/><use xlink:href="#2" y="4.342"/><use xlink:href="#3" y="6.513"/><use xlink:href="#1" y="8.684"/><use xlink:href="#3" y="10.855"/></svg><svg x="490"><use xlink:href="#a"/><use xlink:href="#1"/><use xlink:href="#1" y="2.171"/><use xlink:href="#2" y="4.342"/><use xlink:href="#3" y="6.513"/><use xlink:href="#1" y="8.684"/><use xlink:href="#3" y="10.855"/><use xlink:href="#4" y="13.026"/></svg><svg x="560"><use xlink:href="#a"/><use xlink:href="#1"/><use xlink:href="#1" y="2.171"/><use xlink:href="#2" y="4.342"/><use xlink:href="#3" y="6.513"/><use xlink:href="#1" y="8.684"/><use xlink:href="#3" y="10.855"/><use xlink:href="#4" y="13.026"/><use xlink:href="#5" y="15.197"/></svg><svg x="630"><use xlink:href="#a"/><use xlink:href="#1"/><use xlink:href="#1" y="2.171"/><use xlink:href="#2" y="4.342"/><use xlink:href="#3" y="6.513"/><use xlink:href="#1" y="8.684"/><use xlink:href="#3" y="10.855"/><use xlink:href="#4" y="13.026"/><use xlink:href="#5" y="15.197"/><use xlink:href="#3" y="17.368"/></svg><svg x="700"><use xlink:href="#a"/><use xlink:href="#1"/><use xlink:href="#2" y="2.171"/><use xlink:href="#3" y="4.342"/><use xlink:href="#1" y="6.513"/><use xlink:href="#3" y="8.684"/><use xlink:href="#4" y="10.855"/><use xlink:href="#5" y="13.026"/><use xlink:href="#3" y="15.197"/><use xlink:href="#2" y="17.368"/></svg><svg x="770"><use xlink:href="#a"/><use xlink:href="#2"/><use xlink:href="#3" y="2.171"/><use xlink:href="#1" y="4.342"/><use xlink:href="#3" y="6.513"/><use xlink:href="#4" y="8.684"/><use xlink:href="#5" y="10.855"/><use xlink:href="#3" y="13.026"/><use xlink:href="#2" y="15.197"/><use xlink:href="#2" y="17.368"/></svg><svg x="840"><use xlink:href="#a"/><use xlink:href="#3"/><use xlink:href="#1" y="2.171"/><use xlink:href="#3" y="4.342"/><use xlink:href="#4" y="6.513"/><use xlink:href="#5" y="8.684"/><use xlink:href="#3" y="10.855"/><use xlink:href="#2" y="13.026"/><use xlink:href="#2" y="15.197"/><use xlink:href="#6" y="17.368"/></svg><svg x="910"><use xlink:href="#a"/><use xlink:href="#1"/><use xlink:href="#3" y="2.171"/><use xlink:href="#4" y="4.342"/><use xlink:href="#5" y="6.513"/><use xlink:href="#3" y="8.684"/><use xlink:href="#2" y="10.855"/><use xlink:href="#2" y="13.026"/><use xlink:href="#6" y="15.197"/><use xlink:href="#3" y="17.368"/></svg><svg x="980"><use xlink:href="#a"/><use xlink:href="#3"/><use xlink:href="#4" y="2.171"/><use xlink:href="#5" y="4.342"/><use xlink:href="#3" y="6.513"/><use xlink:href="#2" y="8.684"/><use xlink:href="#2" y="10.855"/><use xlink:href="#6" y="13.026"/><use xlink:href="#3" y="15.197"/><use xlink:href="#5" y="17.368"/></svg><svg x="1050"><use xlink:href="#a"/><use xlink:href="#4"/><use xlink:href="#5" y="2.171"/><use xlink:href="#3" y="4.342"/><use xlink:href="#2" y="6.513"/><use xlink:href="#2" y="8.684"/><use xlink:href="#6" y="10.855"/><use xlink:href="#3" y="13.026"/><use xlink:href="#5" y="15.197"/><use xlink:href="#7" y="17.368"/></svg><svg x="1120"><use xlink:href="#a"/><use xlink:href="#5"/><use xlink:href="#3" y="2.171"/><use xlink:href="#2" y="4.342"/><use xlink:href="#2" y="6.513"/><use xlink:href="#6" y="8.684"/><use xlink:href="#3" y="10.855"/><use xlink:href="#5" y="13.026"/><use xlink:href="#7" y="15.197"/><use xlink:href="#7" y="17.368"/></svg><svg x="1190"><use xlink:href="#a"/><use xlink:href="#3"/><use xlink:href="#2" y="2.171"/><use xlink:href="#2" y="4.342"/><use xlink:href="#6" y="6.513"/><use xlink:href="#3" y="8.684"/><use xlink:href="#5" y="10.855"/><use xlink:href="#7" y="13.026"/><use xlink:href="#7" y="15.197"/><use xlink:href="#8" y="17.368"/></svg><svg x="1260"><use xlink:href="#a"/><use xlink:href="#3"/><use xlink:href="#2" y="2.171"/><use xlink:href="#2" y="4.342"/><use xlink:href="#6" y="6.513"/><use xlink:href="#3" y="8.684"/><use xlink:href="#5" y="10.855"/><use xlink:href="#7" y="13.026"/><use xlink:href="#7" y="15.197"/><use xlink:href="#8" y="17.368"/><use xlink:href="#9" y="19.539"/></svg><svg x="1330"><use xlink:href="#a"/><use xlink:href="#3"/><use xlink:href="#2" y="2.171"/><use xlink:href="#2" y="4.342"/><use xlink:href="#6" y="6.513"/><use xlink:href="#3" y="8.684"/><use xlink:href="#5" y="10.855"/><use xlink:href="#7" y="13.026"/><use xlink:href="#7" y="15.197"/><use xlink:href="#8" y="17.368"/><text y="21.209" class="d">│\033[0m</text><text x="9.018" y="21.209" class="d">\033[1mPackage\033[0m</text></svg><svg x="1400"><use xlink:href="#a"/><use xlink:href="#3"/><use xlink:href="#2" y="2.171"/><use xlink:href="#2" y="4.342"/><use xlink:href="#6" y="6.513"/><use xlink:href="#3" y="8.684"/><use xlink:href="#5" y="10.855"/><use xlink:href="#7" y="13.026"/><use xlink:href="#7" y="15.197"/><use xlink:href="#8" y="17.368"/><text y="21.209" class="d">│\033[0m</text><text x="9.018" y="21.209" class="d">\033[1mPackage\033[0m</text><text x="31.062" y="21.209" class="d">│\033[0m</text></svg><svg x="1470"><use xlink:href="#a"/><use xlink:href="#2"/><use xlink:href="#2" y="2.171"/><use xlink:href="#6" y="4.342"/><use xlink:href="#3" y="6.513"/><use xlink:href="#5" y="8.684"/><use xlink:href="#7" y="10.855"/><use xlink:href="#7" y="13.026"/><use xlink:href="#8" y="15.197"/><use xlink:href="#10" y="17.368"/></svg><svg x="1540"><use xlink:href="#a"/><use xlink:href="#2"/><use xlink:href="#2" y="2.171"/><use xlink:href="#6" y="4.342"/><use xlink:href="#3" y="6.513"/><use xlink:href="#5" y="8.684"/><use xlink:href="#7" y="10.855"/><use xlink:href="#7" y="13.026"/><use xlink:href="#8" y="15.197"/><use xlink:href="#10" y="17.368"/><text x="1.002" y="21.209" class="d">\033[1mVersion\033[0m</text></svg><svg x="1610"><use xlink:href="#a"/><use xlink:href="#2"/><use xlink:href="#2" y="2.171"/><use xlink:href="#6" y="4.342"/><use xlink:href="#3" y="6.513"/><use xlink:href="#5" y="8.684"/><use xlink:href="#7" y="10.855"/><use xlink:href="#7" y="13.026"/><use xlink:href="#8" y="15.197"/><use xlink:href="#10" y="17.368"/><text x="1.002" y="21.209" class="d">\033[1mVersion\033[0m</text><text x="23.046" y="21.209" class="d">│\033[0m</text></svg><svg x="1680"><use xlink:href="#a"/><use xlink:href="#2"/><use xlink:href="#6" y="2.171"/><use xlink:href="#3" y="4.342"/><use xlink:href="#5" y="6.513"/><use xlink:href="#7" y="8.684"/><use xlink:href="#7" y="10.855"/><use xlink:href="#8" y="13.026"/><use xlink:href="#10" y="15.197"/><use xlink:href="#11" y="17.368"/></svg><svg x="1750"><use xlink:href="#a"/><use xlink:href="#2"/><use xlink:href="#6" y="2.171"/><use xlink:href="#3" y="4.342"/><use xlink:href="#5" y="6.513"/><use xlink:href="#7" y="8.684"/><use xlink:href="#7" y="10.855"/><use xlink:href="#8" y="13.026"/><use xlink:href="#10" y="15.197"/><use xlink:href="#11" y="17.368"/><text x="1.002" y="21.209" class="d">\033[1mStatus\033[0m</text></svg><svg x="1820"><use xlink:href="#a"/><use xlink:href="#6"/><use xlink:href="#3" y="2.171"/><use xlink:href="#5" y="4.342"/><use xlink:href="#7" y="6.513"/><use xlink:href="#7" y="8.684"/><use xlink:href="#8" y="10.855"/><use xlink:href="#10" y="13.026"/><use xlink:href="#11" y="15.197"/><use xlink:href="#12" y="17.368"/></svg><svg x="1890"><use xlink:href="#a"/><use xlink:href="#3"/><use xlink:href="#5" y="2.171"/><use xlink:href="#7" y="4.342"/><use xlink:href="#7" y="6.513"/><use xlink:href="#8" y="8.684"/><use xlink:href="#10" y="10.855"/><use xlink:href="#11" y="13.026"/><use xlink:href="#12" y="15.197"/><use xlink:href="#13" y="17.368"/></svg><svg x="1960"><use xlink:href="#a"/><use xlink:href="#5"/><use xlink:href="#7" y="2.171"/><use xlink:href="#7" y="4.342"/><use xlink:href="#8" y="6.513"/><use xlink:href="#10" y="8.684"/><use xlink:href="#11" y="10.855"/><use xlink:href="#12" y="13.026"/><use xlink:href="#13" y="15.197"/><use xlink:href="#14" y="17.368"/></svg><svg x="2030"><use xlink:href="#a"/><use xlink:href="#5"/><use xlink:href="#7" y="2.171"/><use xlink:href="#7" y="4.342"/><use xlink:href="#8" y="6.513"/><use xlink:href="#10" y="8.684"/><use xlink:href="#11" y="10.855"/><use xlink:href="#12" y="13.026"/><use xlink:href="#13" y="15.197"/><use xlink:href="#14" y="17.368"/><use xlink:href="#15" y="19.539"/></svg><svg x="2100"><use xlink:href="#a"/><use xlink:href="#5"/><use xlink:href="#7" y="2.171"/><use xlink:href="#7" y="4.342"/><use xlink:href="#8" y="6.513"/><use xlink:href="#10" y="8.684"/><use xlink:href="#11" y="10.855"/><use xlink:href="#12" y="13.026"/><use xlink:href="#13" y="15.197"/><use xlink:href="#14" y="17.368"/><use xlink:href="#15" y="19.539"/></svg><svg x="2170"><use xlink:href="#a"/><use xlink:href="#5"/><use xlink:href="#7" y="2.171"/><use xlink:href="#7" y="4.342"/><use xlink:href="#8" y="6.513"/><use xlink:href="#10" y="8.684"/><use xlink:href="#11" y="10.855"/><use xlink:href="#12" y="13.026"/><use xlink:href="#13" y="15.197"/><use xlink:href="#14" y="17.368"/><text x="1.002" y="21.209" class="d">node</text><text x="9.018" y="21.209" class="d">│\033[0m</text></svg><svg x="2240"><use xlink:href="#a"/><use xlink:href="#7"/><use xlink:href="#7" y="2.171"/><use xlink:href="#8" y="4.342"/><use xlink:href="#10" y="6.513"/><use xlink:href="#11" y="8.684"/><use xlink:href="#12" y="10.855"/><use xlink:href="#13" y="13.026"/><use xlink:href="#14" y="15.197"/><use xlink:href="#16" y="17.368"/></svg><svg x="2310"><use xlink:href="#a"/><use xlink:href="#7"/><use xlink:href="#7" y="2.171"/><use xlink:href="#8" y="4.342"/><use xlink:href="#10" y="6.513"/><use xlink:href="#11" y="8.684"/><use xlink:href="#12" y="10.855"/><use xlink:href="#13" y="13.026"/><use xlink:href="#14" y="15.197"/><use xlink:href="#16" y="17.368"/><text x="1.002" y="21.209" class="d">20.11.0</text></svg><svg x="2380"><use xlink:href="#a"/><use xlink:href="#7"/><use xlink:href="#7" y="2.171"/><use xlink:href="#8" y="4.342"/><use xlink:href="#10" y="6.513"/><use xlink:href="#11" y="8.684"/><use xlink:href="#12" y="10.855"/><use xlink:href="#13" y="13.026"/><use xlink:href="#14" y="15.197"/><use xlink:href="#16" y="17.368"/><text x="1.002" y="21.209" class="d">20.11.0</text><text x="9.018" y="21.209" class="d">│\033[0m</text></svg><svg x="2450"><use xlink:href="#a"/><use xlink:href="#7"/><use xlink:href="#8" y="2.171"/><use xlink:href="#10" y="4.342"/><use xlink:href="#11" y="6.513"/><use xlink:href="#12" y="8.684"/><use xlink:href="#13" y="10.855"/><use xlink:href="#14" y="13.026"/><use xlink:href="#16" y="15.197"/><use xlink:href="#17" y="17.368"/></svg><svg x="2520"><use xlink:href="#a"/><use xlink:href="#7"/><use xlink:href="#8" y="2.171"/><use xlink:href="#10" y="4.342"/><use xlink:href="#11" y="6.513"/><use xlink:href="#12" y="8.684"/><use xlink:href="#13" y="10.855"/><use xlink:href="#14" y="13.026"/><use xlink:href="#16" y="15.197"/><use xlink:href="#17" y="17.368"/><use xlink:href="#18" y="19.539"/></svg><svg x="2590"><use xlink:href="#a"/><use xlink:href="#8"/><use xlink:href="#10" y="2.171"/><use xlink:href="#11" y="4.342"/><use xlink:href="#12" y="6.513"/><use xlink:href="#13" y="8.684"/><use xlink:href="#14" y="10.855"/><use xlink:href="#16" y="13.026"/><use xlink:href="#17" y="15.197"/><use xlink:href="#19" y="17.368"/></svg><svg x="2660"><use xlink:href="#a"/><use xlink:href="#8"/><use xlink:href="#10" y="2.171"/><use xlink:href="#11" y="4.342"/><use xlink:href="#12" y="6.513"/><use xlink:href="#13" y="8.684"/><use xlink:href="#14" y="10.855"/><use xlink:href="#16" y="13.026"/><use xlink:href="#17" y="15.197"/><use xlink:href="#19" y="17.368"/><use xlink:href="#9" y="19.539"/></svg><svg x="2730"><use xlink:href="#a"/><use xlink:href="#10"/><use xlink:href="#11" y="2.171"/><use xlink:href="#12" y="4.342"/><use xlink:href="#13" y="6.513"/><use xlink:href="#14" y="8.684"/><use xlink:href="#16" y="10.855"/><use xlink:href="#17" y="13.026"/><use xlink:href="#19" y="15.197"/><use xlink:href="#20" y="17.368"/></svg><svg x="2800"><use xlink:href="#a"/><use xlink:href="#10"/><use xlink:href="#11" y="2.171"/><use xlink:href="#12" y="4.342"/><use xlink:href="#13" y="6.513"/><use xlink:href="#14" y="8.684"/><use xlink:href="#16" y="10.855"/><use xlink:href="#17" y="13.026"/><use xlink:href="#19" y="15.197"/><use xlink:href="#20" y="17.368"/><use xlink:href="#21" y="19.539"/></svg><svg x="2870"><use xlink:href="#a"/><use xlink:href="#10"/><use xlink:href="#11" y="2.171"/><use xlink:href="#12" y="4.342"/><use xlink:href="#13" y="6.513"/><use xlink:href="#14" y="8.684"/><use xlink:href="#16" y="10.855"/><use xlink:href="#17" y="13.026"/><use xlink:href="#19" y="15.197"/><use xlink:href="#20" y="17.368"/><use xlink:href="#21" y="19.539"/></svg><svg x="2940"><use xlink:href="#a"/><use xlink:href="#10"/><use xlink:href="#11" y="2.171"/><use xlink:href="#12" y="4.342"/><use xlink:href="#13" y="6.513"/><use xlink:href="#14" y="8.684"/><use xlink:href="#16" y="10.855"/><use xlink:href="#17" y="13.026"/><use xlink:href="#19" y="15.197"/><use xlink:href="#20" y="17.368"/><text x="1.002" y="21.209" class="d">bun</text><text x="9.018" y="21.209" class="d">│\033[0m</text></svg><svg x="3010"><use xlink:href="#a"/><use xlink:href="#11"/><use xlink:href="#12" y="2.171"/><use xlink:href="#13" y="4.342"/><use xlink:href="#14" y="6.513"/><use xlink:href="#16" y="8.684"/><use xlink:href="#17" y="10.855"/><use xlink:href="#19" y="13.026"/><use xlink:href="#20" y="15.197"/><use xlink:href="#22" y="17.368"/></svg><svg x="3080"><use xlink:href="#a"/><use xlink:href="#11"/><use xlink:href="#12" y="2.171"/><use xlink:href="#13" y="4.342"/><use xlink:href="#14" y="6.513"/><use xlink:href="#16" y="8.684"/><use xlink:href="#17" y="10.855"/><use xlink:href="#19" y="13.026"/><use xlink:href="#20" y="15.197"/><use xlink:href="#22" y="17.368"/><use xlink:href="#23" y="19.539"/></svg><svg x="3150"><use xlink:href="#a"/><use xlink:href="#11"/><use xlink:href="#12" y="2.171"/><use xlink:href="#13" y="4.342"/><use xlink:href="#14" y="6.513"/><use xlink:href="#16" y="8.684"/><use xlink:href="#17" y="10.855"/><use xlink:href="#19" y="13.026"/><use xlink:href="#20" y="15.197"/><use xlink:href="#22" y="17.368"/><use xlink:href="#23" y="19.539"/></svg><svg x="3220"><use xlink:href="#a"/><use xlink:href="#11"/><use xlink:href="#12" y="2.171"/><use xlink:href="#13" y="4.342"/><use xlink:href="#14" y="6.513"/><use xlink:href="#16" y="8.684"/><use xlink:href="#17" y="10.855"/><use xlink:href="#19" y="13.026"/><use xlink:href="#20" y="15.197"/><use xlink:href="#22" y="17.368"/><text x="1.002" y="21.209" class="d">1.1.3</text><text x="9.018" y="21.209" class="d">│\033[0m</text></svg><svg x="3290"><use xlink:href="#a"/><use xlink:href="#12"/><use xlink:href="#13" y="2.171"/><use xlink:href="#14" y="4.342"/><use xlink:href="#16" y="6.513"/><use xlink:href="#17" y="8.684"/><use xlink:href="#19" y="10.855"/><use xlink:href="#20" y="13.026"/><use xlink:href="#22" y="15.197"/><use xlink:href="#24" y="17.368"/></svg><svg x="3360"><use xlink:href="#a"/><use xlink:href="#12"/><use xlink:href="#13" y="2.171"/><use xlink:href="#14" y="4.342"/><use xlink:href="#16" y="6.513"/><use xlink:href="#17" y="8.684"/><use xlink:href="#19" y="10.855"/><use xlink:href="#20" y="13.026"/><use xlink:href="#22" y="15.197"/><use xlink:href="#24" y="17.368"/><use xlink:href="#18" y="19.539"/></svg><svg x="3430"><use xlink:href="#a"/><use xlink:href="#13"/><use xlink:href="#14" y="2.171"/><use xlink:href="#16" y="4.342"/><use xlink:href="#17" y="6.513"/><use xlink:href="#19" y="8.684"/><use xlink:href="#20" y="10.855"/><use xlink:href="#22" y="13.026"/><use xlink:href="#24" y="15.197"/><use xlink:href="#19" y="17.368"/></svg><svg x="3500"><use xlink:href="#a"/><use xlink:href="#13"/><use xlink:href="#14" y="2.171"/><use xlink:href="#16" y="4.342"/><use xlink:href="#17" y="6.513"/><use xlink:href="#19" y="8.684"/><use xlink:href="#20" y="10.855"/><use xlink:href="#22" y="13.026"/><use xlink:href="#24" y="15.197"/><use xlink:href="#19" y="17.368"/><use xlink:href="#9" y="19.539"/></svg><svg x="3570"><use xlink:href="#a"/><use xlink:href="#14"/><use xlink:href="#16" y="2.171"/><use xlink:href="#17" y="4.342"/><use xlink:href="#19" y="6.513"/><use xlink:href="#20" y="8.684"/><use xlink:href="#22" y="10.855"/><use xlink:href="#24" y="13.026"/><use xlink:href="#19" y="15.197"/><use xlink:href="#20" y="17.368"/></svg><svg x="3640"><use xlink:href="#a"/><use xlink:href="#14"/><use xlink:href="#16" y="2.171"/><use xlink:href="#17" y="4.342"/><use xlink:href="#19" y="6.513"/><use xlink:href="#20" y="8.684"/><use xlink:href="#22" y="10.855"/><use xlink:href="#24" y="13.026"/><use xlink:href="#19" y="15.197"/><use xlink:href="#20" y="17.368"/><text x="1.002" y="21.209" class="d">python</text></svg><svg x="3710"><use xlink:href="#a"/><use xlink:href="#14"/><use xlink:href="#16" y="2.171"/><use xlink:href="#17" y="4.342"/><use xlink:href="#19" y="6.513"/><use xlink:href="#20" y="8.684"/><use xlink:href="#22" y="10.855"/><use xlink:href="#24" y="13.026"/><use xlink:href="#19" y="15.197"/><use xlink:href="#20" y="17.368"/><text x="1.002" y="21.209" class="d">python</text><text x="9.018" y="21.209" class="d">│\033[0m</text></svg><svg x="3780"><use xlink:href="#a"/><use xlink:href="#16"/><use xlink:href="#17" y="2.171"/><use xlink:href="#19" y="4.342"/><use xlink:href="#20" y="6.513"/><use xlink:href="#22" y="8.684"/><use xlink:href="#24" y="10.855"/><use xlink:href="#19" y="13.026"/><use xlink:href="#20" y="15.197"/><use xlink:href="#25" y="17.368"/></svg><svg x="3850"><use xlink:href="#a"/><use xlink:href="#16"/><use xlink:href="#17" y="2.171"/><use xlink:href="#19" y="4.342"/><use xlink:href="#20" y="6.513"/><use xlink:href="#22" y="8.684"/><use xlink:href="#24" y="10.855"/><use xlink:href="#19" y="13.026"/><use xlink:href="#20" y="15.197"/><use xlink:href="#25" y="17.368"/><use xlink:href="#26" y="19.539"/></svg><svg x="3920"><use xlink:href="#a"/><use xlink:href="#16"/><use xlink:href="#17" y="2.171"/><use xlink:href="#19" y="4.342"/><use xlink:href="#20" y="6.513"/><use xlink:href="#22" y="8.684"/><use xlink:href="#24" y="10.855"/><use xlink:href="#19" y="13.026"/><use xlink:href="#20" y="15.197"/><use xlink:href="#25" y="17.368"/><use xlink:href="#26" y="19.539"/></svg><svg x="3990"><use xlink:href="#a"/><use xlink:href="#16"/><use xlink:href="#17" y="2.171"/><use xlink:href="#19" y="4.342"/><use xlink:href="#20" y="6.513"/><use xlink:href="#22" y="8.684"/><use xlink:href="#24" y="10.855"/><use xlink:href="#19" y="13.026"/><use xlink:href="#20" y="15.197"/><use xlink:href="#25" y="17.368"/><text x="1.002" y="21.209" class="d">3.12.0</text><text x="9.018" y="21.209" class="d">│\033[0m</text></svg><svg x="4060"><use xlink:href="#a"/><use xlink:href="#17"/><use xlink:href="#19" y="2.171"/><use xlink:href="#20" y="4.342"/><use xlink:href="#22" y="6.513"/><use xlink:href="#24" y="8.684"/><use xlink:href="#19" y="10.855"/><use xlink:href="#20" y="13.026"/><use xlink:href="#25" y="15.197"/><use xlink:href="#27" y="17.368"/></svg><svg x="4130"><use xlink:href="#a"/><use xlink:href="#17"/><use xlink:href="#19" y="2.171"/><use xlink:href="#20" y="4.342"/><use xlink:href="#22" y="6.513"/><use xlink:href="#24" y="8.684"/><use xlink:href="#19" y="10.855"/><use xlink:href="#20" y="13.026"/><use xlink:href="#25" y="15.197"/><use xlink:href="#27" y="17.368"/><path class="g" d="M1.002 19.539h10v2.171h-10z"/><text x="1.002" y="21.209" class="f">outdated</text></svg><svg x="4200"><use xlink:href="#a"/><use xlink:href="#19"/><use xlink:href="#20" y="2.171"/><use xlink:href="#22" y="4.342"/><use xlink:href="#24" y="6.513"/><use xlink:href="#19" y="8.684"/><use xlink:href="#20" y="10.855"/><use xlink:href="#25" y="13.026"/><use xlink:href="#27" y="15.197"/><use xlink:href="#28" y="17.368"/></svg><svg x="4270"><use xlink:href="#a"/><use xlink:href="#19"/><use xlink:href="#20" y="2.171"/><use xlink:href="#22" y="4.342"/><use xlink:href="#24" y="6.513"/><use xlink:href="#19" y="8.684"/><use xlink:href="#20" y="10.855"/><use xlink:href="#25" y="13.026"/><use xlink:href="#27" y="15.197"/><use xlink:href="#28" y="17.368"/><use xlink:href="#9" y="19.539"/></svg><svg x="4340"><use xlink:href="#a"/><use xlink:href="#20"/><use xlink:href="#22" y="2.171"/><use xlink:href="#24" y="4.342"/><use xlink:href="#19" y="6.513"/><use xlink:href="#20" y="8.684"/><use xlink:href="#25" y="10.855"/><use xlink:href="#27" y="13.026"/><use xlink:href="#28" y="15.197"/><use xlink:href="#29" y="17.368"/></svg><svg x="4410"><use xlink:href="#a"/><use xlink:href="#20"/><use xlink:href="#22" y="2.171"/><use xlink:href="#24" y="4.342"/><use xlink:href="#19" y="6.513"/><use xlink:href="#20" y="8.684"/><use xlink:href="#25" y="10.855"/><use xlink:href="#27" y="13.026"/><use xlink:href="#28" y="15.197"/><use xlink:href="#29" y="17.368"/><use xlink:href="#30" y="19.539"/></svg><svg x="4480"><use xlink:href="#a"/><use xlink:href="#20"/><use xlink:href="#22" y="2.171"/><use xlink:href="#24" y="4.342"/><use xlink:href="#19" y="6.513"/><use xlink:href="#20" y="8.684"/><use xlink:href="#25" y="10.855"/><use xlink:href="#27" y="13.026"/><use xlink:href="#28" y="15.197"/><use xlink:href="#29" y="17.368"/><use xlink:href="#30" y="19.539"/></svg><svg x="4550"><use xlink:href="#a"/><use xlink:href="#20"/><use xlink:href="#22" y="2.171"/><use xlink:href="#24" y="4.342"/><use xlink:href="#19" y="6.513"/><use xlink:href="#20" y="8.684"/><use xlink:href="#25" y="10.855"/><use xlink:href="#27" y="13.026"/><use xlink:href="#28" y="15.197"/><use xlink:href="#29" y="17.368"/><text x="1.002" y="21.209" class="d">ruby</text><text x="9.018" y="21.209" class="d">│\033[0m</text></svg><svg x="4620"><use xlink:href="#a"/><use xlink:href="#22"/><use xlink:href="#24" y="2.171"/><use xlink:href="#19" y="4.342"/><use xlink:href="#20" y="6.513"/><use xlink:href="#25" y="8.684"/><use xlink:href="#27" y="10.855"/><use xlink:href="#28" y="13.026"/><use xlink:href="#29" y="15.197"/><use xlink:href="#31" y="17.368"/></svg><svg x="4690"><use xlink:href="#a"/><use xlink:href="#22"/><use xlink:href="#24" y="2.171"/><use xlink:href="#19" y="4.342"/><use xlink:href="#20" y="6.513"/><use xlink:href="#25" y="8.684"/><use xlink:href="#27" y="10.855"/><use xlink:href="#28" y="13.026"/><use xlink:href="#29" y="15.197"/><use xlink:href="#31" y="17.368"/><text x="1.002" y="21.209" class="d">2.7.0</text></svg><svg x="4760"><use xlink:href="#a"/><use xlink:href="#24"/><use xlink:href="#19" y="2.171"/><use xlink:href="#20" y="4.342"/><use xlink:href="#25" y="6.513"/><use xlink:href="#27" y="8.684"/><use xlink:href="#28" y="10.855"/><use xlink:href="#29" y="13.026"/><use xlink:href="#31" y="15.197"/><use xlink:href="#32" y="17.368"/></svg><svg x="4830"><use xlink:href="#a"/><use xlink:href="#24"/><use xlink:href="#19" y="2.171"/><use xlink:href="#20" y="4.342"/><use xlink:href="#25" y="6.513"/><use xlink:href="#27" y="8.684"/><use xlink:href="#28" y="10.855"/><use xlink:href="#29" y="13.026"/><use xlink:href="#31" y="15.197"/><use xlink:href="#32" y="17.368"/><use xlink:href="#33" y="19.539"/></svg><svg x="4900"><use xlink:href="#a"/><use xlink:href="#24"/><use xlink:href="#19" y="2.171"/><use xlink:href="#20" y="4.342"/><use xlink:href="#25" y="6.513"/><use xlink:href="#27" y="8.684"/><use xlink:href="#28" y="10.855"/><use xlink:href="#29" y="13.026"/><use xlink:href="#31" y="15.197"/><use xlink:href="#32" y="17.368"/><use xlink:href="#33" y="19.539"/></svg><svg x="4970"><use xlink:href="#a"/><use xlink:href="#24"/><use xlink:href="#19" y="2.171"/><use xlink:href="#20" y="4.342"/><use xlink:href="#25" y="6.513"/><use xlink:href="#27" y="8.684"/><use xlink:href="#28" y="10.855"/><use xlink:href="#29" y="13.026"/><use xlink:href="#31" y="15.197"/><use xlink:href="#32" y="17.368"/><use xlink:href="#34" y="19.539"/></svg><svg x="5040"><use xlink:href="#a"/><use xlink:href="#19"/><use xlink:href="#20" y="2.171"/><use xlink:href="#25" y="4.342"/><use xlink:href="#27" y="6.513"/><use xlink:href="#28" y="8.684"/><use xlink:href="#29" y="10.855"/><use xlink:href="#31" y="13.026"/><use xlink:href="#32" y="15.197"/><use xlink:href="#34" y="17.368"/></svg><svg x="5110"><use xlink:href="#a"/><use xlink:href="#20"/><use xlink:href="#25" y="2.171"/><use xlink:href="#27" y="4.342"/><use xlink:href="#28" y="6.513"/><use xlink:href="#29" y="8.684"/><use xlink:href="#31" y="10.855"/><use xlink:href="#32" y="13.026"/><use xlink:href="#34" y="15.197"/><text y="19.038" class="d">└─────────┴─────────┴────────────┘</text></svg></svg></g></g></svg></svg>